HIERARCHY
ROOT hip
{
  OFFSET 0.0 0.0 0.0
  CHANNELS 6 Xposition Yposition Zposition Zrotation Yrotation Xrotation
  JOINT abdomen
  {
    OFFSET 0.0 20.6881 -0.73152
    CHANNELS 3 Zrotation Xrotation Yrotation
    JOINT chest
    {
      OFFSET 0.0 11.7043 -0.48768
      CHANNELS 3 Zrotation Xrotation Yrotation
      JOINT neck
      {
        OFFSET 0.0 22.1894 -2.19456
        CHANNELS 3 Zrotation Xrotation Yrotation
        JOINT head
        {
          OFFSET -0.24384 7.07133 1.2192
          CHANNELS 3 Zrotation Xrotation Yrotation
          JOINT leftEye
          {
            OFFSET 4.14528 8.04674 8.04672
            CHANNELS 3 Zrotation Xrotation Yrotation
            End Site
            {
              OFFSET 1.0 0.0 0.0
            }
          }
          JOINT rightEye
          {
            OFFSET -3.6576 8.04674 8.04672
            CHANNELS 3 Zrotation Xrotation Yrotation
            End Site
            {
              OFFSET 1.0 0.0 0.0
            }
          }
        }
      }
      JOINT rCollar
      {
        OFFSET -2.68224 19.2634 -4.8768
        CHANNELS 3 Zrotation Xrotation Yrotation
        JOINT rShldr
        {
          OFFSET -8.77824 -1.95073 1.46304
          CHANNELS 3 Zrotation Xrotation Yrotation
          JOINT rForeArm
          {
            OFFSET -28.1742 -1.7115 0.48768
            CHANNELS 3 Zrotation Xrotation Yrotation
            JOINT rHand
            {
              OFFSET -22.5879 0.773209 7.07136
              CHANNELS 3 Zrotation Xrotation Yrotation
              JOINT rThumb1
              {
                OFFSET -1.2192 -0.487915 3.41376
                CHANNELS 3 Zrotation Xrotation Yrotation
                JOINT rThumb2
                {
                  OFFSET -3.37035 -0.52449 3.41376
                  CHANNELS 3 Zrotation Xrotation Yrotation
                  End Site
                  {
                    OFFSET -1.78271 -1.18214 1.43049
                  }
                }
              }
              JOINT rIndex1
              {
                OFFSET -7.75947 0.938293 5.60832
                CHANNELS 3 Zrotation Xrotation Yrotation
                JOINT rIndex2
                {
                  OFFSET -2.54057 -0.884171 1.56538
                  CHANNELS 3 Zrotation Xrotation Yrotation
                  End Site
                  {
                    OFFSET -1.62519 -0.234802 1.16502
                  }
                }
              }
              JOINT rMid1
              {
                OFFSET -8.24714 1.18213 3.41376
                CHANNELS 3 Zrotation Xrotation Yrotation
                JOINT rMid2
                {
                  OFFSET -3.10165 -0.590103 1.0647
                  CHANNELS 3 Zrotation Xrotation Yrotation
                  End Site
                  {
                    OFFSET -2.48547 -0.328903 0.83742
                  }
                }
              }
              JOINT rRing1
              {
                OFFSET -8.82822 0.546677 1.51678
                CHANNELS 3 Zrotation Xrotation Yrotation
                JOINT rRing2
                {
                  OFFSET -2.60934 -0.819778 -0.0198488
                  CHANNELS 3 Zrotation Xrotation Yrotation
                  End Site
                  {
                    OFFSET -2.33842 -0.294052 0.168128
                  }
                }
              }
              JOINT rPinky1
              {
                OFFSET -8.27202 -0.0477905 -0.4584
                CHANNELS 3 Zrotation Xrotation Yrotation
                JOINT rPinky2
                {
                  OFFSET -1.82734 -0.647385 -0.700984
                  CHANNELS 3 Zrotation Xrotation Yrotation
                  End Site
                  {
                    OFFSET -1.69225 -0.51767 -0.607171
                  }
                }
              }
            }
          }
        }
      }
      JOINT lCollar
      {
        OFFSET 2.68224 19.2634 -4.8768
        CHANNELS 3 Zrotation Xrotation Yrotation
        JOINT lShldr
        {
          OFFSET 8.77824 -1.95073 1.46304
          CHANNELS 3 Zrotation Xrotation Yrotation
          JOINT lForeArm
          {
            OFFSET 28.1742 -1.7115 0.48768
            CHANNELS 3 Zrotation Xrotation Yrotation
            JOINT lHand
            {
              OFFSET 22.5879 0.773209 7.07136
              CHANNELS 3 Zrotation Xrotation Yrotation
              JOINT lThumb1
              {
                OFFSET 1.2192 -0.487915 3.41376
                CHANNELS 3 Zrotation Xrotation Yrotation
                JOINT lThumb2
                {
                  OFFSET 3.37035 -0.52449 3.41376
                  CHANNELS 3 Zrotation Xrotation Yrotation
                  End Site
                  {
                    OFFSET 1.78271 -1.18214 1.43049
                  }
                }
              }
              JOINT lIndex1
              {
                OFFSET 7.75947 0.938293 5.60832
                CHANNELS 3 Zrotation Xrotation Yrotation
                JOINT lIndex2
                {
                  OFFSET 2.54057 -0.884171 1.56538
                  CHANNELS 3 Zrotation Xrotation Yrotation
                  End Site
                  {
                    OFFSET 1.62519 -0.234802 1.16502
                  }
                }
              }
              JOINT lMid1
              {
                OFFSET 8.24714 1.18213 3.41376
                CHANNELS 3 Zrotation Xrotation Yrotation
                JOINT lMid2
                {
                  OFFSET 3.10165 -0.590103 1.0647
                  CHANNELS 3 Zrotation Xrotation Yrotation
                  End Site
                  {
                    OFFSET 2.48547 -0.328903 0.83742
                  }
                }
              }
              JOINT lRing1
              {
                OFFSET 8.82822 0.546677 1.51678
                CHANNELS 3 Zrotation Xrotation Yrotation
                JOINT lRing2
                {
                  OFFSET 2.60934 -0.819778 -0.0198488
                  CHANNELS 3 Zrotation Xrotation Yrotation
                  End Site
                  {
                    OFFSET 2.33842 -0.294052 0.168128
                  }
                }
              }
              JOINT lPinky1
              {
                OFFSET 8.27202 -0.0477905 -0.4584
                CHANNELS 3 Zrotation Xrotation Yrotation
                JOINT lPinky2
                {
                  OFFSET 1.82734 -0.647385 -0.700984
                  CHANNELS 3 Zrotation Xrotation Yrotation
                  End Site
                  {
                    OFFSET 1.69225 -0.51767 -0.607171
                  }
                }
              }
            }
          }
        }
      }
    }
  }
  JOINT rButtock
  {
    OFFSET -8.77824 4.35084 1.2192
    CHANNELS 3 Zrotation Xrotation Yrotation
    JOINT rThigh
    {
      OFFSET 0.0 -1.70687 -2.19456
      CHANNELS 3 Zrotation Xrotation Yrotation
      JOINT rShin
      {
        OFFSET 0.0 -36.8199 0.73152
        CHANNELS 3 Zrotation Xrotation Yrotation
        JOINT rFoot
        {
          OFFSET 0.73152 -45.1104 -5.12064
          CHANNELS 3 Zrotation Xrotation Yrotation
          End Site
          {
            OFFSET -1.1221 -3.69964 12.103
          }
        }
      }
    }
  }
  JOINT lButtock
  {
    OFFSET 8.77824 4.35084 1.2192
    CHANNELS 3 Zrotation Xrotation Yrotation
    JOINT lThigh
    {
      OFFSET 0.0 -1.70687 -2.19456
      CHANNELS 3 Zrotation Xrotation Yrotation
      JOINT lShin
      {
        OFFSET 0.0 -36.8199 0.73152
        CHANNELS 3 Zrotation Xrotation Yrotation
        JOINT lFoot
        {
          OFFSET -0.73152 -45.1104 -5.12064
          CHANNELS 3 Zrotation Xrotation Yrotation
          End Site
          {
            OFFSET 1.1221 -3.69964 12.103
          }
        }
      }
    }
  }
}
MOTION
Frames: 4
Frame Time: 0.00833333
0.0 81.4437 0.0 7.1781 2.105 0.6597 19.1919 12.9201 0.611437 4.3781 -3.35476 0.867962 5.13256 1.57609 -0.162161 -29.3098 -3.20972 -2.51496 -0.0 0.0 0.0 -0.0 0.0 0.0 8.78275e-14 7.15644e-14 6.21202e-15 78.6223 15.4448 -3.16795 -10.9028 -4.7083 19.5057 -0.042096 -5.84575 -0.824457 -3.31821e-09 1.71257e-09 -8.71758e-11 -5.73901e-09 2.96268e-09 -1.57635e-10 -3.31821e-09 1.71258e-09 -8.71822e-11 7.73091 5.47488 0.417314 -3.31821e-09 1.71258e-09 -8.71822e-11 2.90554 0.965183 0.102902 -3.3182e-09 1.71258e-09 -8.71814e-11 10.2786 0.731801 0.0259123 -3.31821e-09 1.71257e-09 -8.7179e-11 2.22167 -0.733487 -0.20892 1.89645e-14 -2.22709e-14 5.71009e-14 -37.8801 -20.6408 7.65582 17.6987 -10.3663 -33.3477 0.0130912 -3.26488 0.459351 -1.37097e-09 1.28275e-09 2.27782e-10 -2.36697e-09 2.21937e-09 3.91818e-10 -1.37097e-09 1.28275e-09 2.27785e-10 -7.73091 5.47488 -0.417314 -1.37097e-09 1.28275e-09 2.27782e-10 -2.90554 0.965183 -0.102902 -1.37098e-09 1.28275e-09 2.27787e-10 -10.2786 0.731801 -0.0259123 -1.37097e-09 1.28275e-09 2.27782e-10 -2.22167 -0.733487 0.20892 -2.03217e-16 0.0 -3.88251e-19 -10.0197 2.7697 3.44077 -0.0856824 26.8392 0.768684 -10.0547 -12.7789 -30.2521 2.03217e-16 0.0 3.88251e-19 -1.54684 -33.0656 11.8066 0.197634 29.947 -0.321252 0.47386 8.07632 -0.0442718
0.0769599999999997 81.3068 0.32799999999998875 6.9262 1.9672 0.7372 19.2794 12.8481 0.525342 4.41336 -3.35633 0.843697 5.23235 1.59364 -0.0705273 -29.3297 -3.21081 -2.35459 -0.0 0.0 0.0 -0.0 0.0 0.0 1.07382e-13 7.90165e-14 2.39745e-14 78.5772 15.3502 -3.14099 -10.859 -4.67992 19.4225 -0.0435572 -5.94931 -0.839164 -3.41553e-09 1.5194e-09 1.55824e-10 -5.90795e-09 2.62867e-09 2.61946e-10 -3.41553e-09 1.51941e-09 1.55816e-10 7.73091 5.47488 0.417314 -3.41553e-09 1.51941e-09 1.55817e-10 2.90554 0.965183 0.102902 -3.41553e-09 1.51941e-09 1.55819e-10 10.2786 0.731801 0.0259123 -3.41553e-09 1.5194e-09 1.55822e-10 2.22167 -0.733487 -0.20892 1.63588e-14 -2.55741e-14 6.78667e-14 -37.6367 -20.66 7.67728 17.7253 -10.3943 -33.4068 0.0134318 -3.30645 0.465214 -2.31374e-09 6.97425e-10 2.41287e-10 -3.99806e-09 1.20582e-09 4.15154e-10 -2.31374e-09 6.97426e-10 2.4129e-10 -7.73091 5.47488 -0.417314 -2.31374e-09 6.97427e-10 2.41287e-10 -2.90554 0.965183 -0.102902 -2.31374e-09 6.97426e-10 2.41292e-10 -10.2786 0.731801 -0.0259123 -2.31373e-09 6.97426e-10 2.41286e-10 -2.22167 -0.733487 0.20892 -2.03217e-16 0.0 -3.88251e-19 -9.86311 2.86491 3.33065 -0.0855271 26.8472 0.770413 -10.0454 -12.8492 -30.1286 2.03217e-16 0.0 3.88251e-19 -1.27302 -33.1547 11.9432 0.202934 30.3894 -0.331725 0.475902 7.55012 -0.0469795
0.1534999999999993 81.177 0.6559999999999917 6.6533 1.876 0.8301 19.3902 12.7336 0.438276 4.41995 -3.36276 0.817186 5.37173 1.59476 0.0231715 -29.3867 -3.1714 -2.19215 -0.0 0.0 0.0 -0.0 0.0 0.0 1.33981e-13 8.11833e-14 4.39749e-14 78.5411 15.2016 -3.11546 -10.8082 -4.64705 19.3263 -0.045781 -6.10021 -0.860606 -3.3498e-09 1.11164e-09 4.57392e-10 -5.79515e-09 1.9234e-09 7.82789e-10 -3.3498e-09 1.11165e-09 4.57381e-10 7.73091 5.47488 0.417314 -3.3498e-09 1.11165e-09 4.57386e-10 2.90554 0.965183 0.102902 -3.3498e-09 1.11165e-09 4.57388e-10 10.2786 0.731801 0.0259123 -3.3498e-09 1.11165e-09 4.57395e-10 2.22167 -0.733487 -0.20892 1.51612e-14 -3.71757e-14 8.52196e-14 -37.3768 -20.6734 7.70234 17.7547 -10.4253 -33.4723 0.0137102 -3.3405 0.470015 -3.55455e-09 -2.17119e-10 1.56498e-10 -6.14545e-09 -3.77453e-10 2.68444e-10 -3.55455e-09 -2.17118e-10 1.56502e-10 -7.73091 5.47488 -0.417314 -3.55455e-09 -2.17116e-10 1.56498e-10 -2.90554 0.965183 -0.102902 -3.55456e-09 -2.17117e-10 1.56503e-10 -10.2786 0.731801 -0.0259123 -3.55455e-09 -2.17119e-10 1.56495e-10 -2.22167 -0.733487 0.20892 -2.03217e-16 0.0 -3.88251e-19 -9.67037 2.97176 3.20896 -0.0852564 26.8373 0.771482 -10.0428 -12.9131 -30.0311 2.03217e-16 0.0 3.88251e-19 -0.999337 -33.2612 12.0339 0.208624 30.8418 -0.340928 0.473351 7.01803 0.0994324
0.22021999999999942 81.0574 0.9789999999999992 6.3349 1.835 0.9369 19.501 12.5923 0.343044 4.41697 -3.3731 0.787007 5.53585 1.59454 0.115689 -29.4588 -3.11258 -2.03368 -0.0 0.0 0.0 -0.0 0.0 0.0 1.53231e-13 8.49032e-14 6.18663e-14 78.4753 15.0637 -3.07802 -10.7465 -4.6073 19.2092 -0.0480467 -6.24648 -0.88141 -3.26517e-09 6.87176e-10 7.2279e-10 -5.64957e-09 1.18912e-09 1.24107e-09 -3.26517e-09 6.87179e-10 7.22778e-10 7.73091 5.47488 0.417314 -3.26517e-09 6.87176e-10 7.22786e-10 2.90554 0.965183 0.102902 -3.26518e-09 6.87177e-10 7.22789e-10 10.2786 0.731801 0.0259123 -3.26518e-09 6.87176e-10 7.22797e-10 2.22167 -0.733487 -0.20892 1.07194e-14 -4.52988e-14 9.68621e-14 -37.0981 -20.686 7.73354 17.7871 -10.4596 -33.5445 0.0138878 -3.36231 0.473091 -4.72343e-09 -1.11048e-09 4.50817e-11 -8.16847e-09 -1.924e-09 7.56757e-11 -4.72343e-09 -1.11048e-09 4.50868e-11 -7.73091 5.47488 -0.417314 -4.72343e-09 -1.11047e-09 4.50817e-11 -2.90554 0.965183 -0.102902 -4.72344e-09 -1.11048e-09 4.50855e-11 -10.2786 0.731801 -0.0259123 -4.72342e-09 -1.11048e-09 4.50767e-11 -2.22167 -0.733487 0.20892 -2.03217e-16 0.0 -3.88251e-19 -9.45533 3.0883 3.08618 -0.0849305 26.8173 0.772178 -10.0391 -12.9589 -29.9563 2.03217e-16 0.0 3.88251e-19 -0.739355 -33.385 12.0748 0.214622 31.3035 -0.349751 0.471983 6.49902 0.315577
